/* XPM */
static char * fc_32_xpm[] = {
"32 32 807 2",
"  	c None",
". 	c #505166",
"+ 	c #4E4F64",
"@ 	c #494A5F",
"# 	c #45465C",
"$ 	c #414158",
"% 	c #3C3D53",
"& 	c #37374F",
"* 	c #2B2B42",
"= 	c #484A6B",
"- 	c #5B5E79",
"; 	c #696C82",
"> 	c #6D6E83",
", 	c #6C6D82",
"' 	c #6A6B80",
") 	c #66677B",
"! 	c #5C5D71",
"~ 	c #505165",
"{ 	c #4B4C61",
"] 	c #44455A",
"^ 	c #37384D",
"/ 	c #2A2840",
"( 	c #232138",
"_ 	c #525980",
": 	c #5D657A",
"< 	c #6A6F8B",
"[ 	c #6C718B",
"} 	c #787D95",
"| 	c #88899E",
"1 	c #7F8094",
"2 	c #838496",
"3 	c #7B7C8F",
"4 	c #626376",
"5 	c #454461",
"6 	c #4E4D6B",
"7 	c #454460",
"8 	c #49475C",
"9 	c #343349",
"0 	c #24233B",
"a 	c #111432",
"b 	c #636A91",
"c 	c #7F85A5",
"d 	c #7F839D",
"e 	c #82889C",
"f 	c #838796",
"g 	c #75768A",
"h 	c #6D6D85",
"i 	c #787890",
"j 	c #848391",
"k 	c #7C7A8F",
"l 	c #747382",
"m 	c #56586B",
"n 	c #565D70",
"o 	c #3D3F5A",
"p 	c #3A3F58",
"q 	c #474A5E",
"r 	c #2F2F4B",
"s 	c #21213D",
"t 	c #181834",
"u 	c #697199",
"v 	c #5D678D",
"w 	c #838CA8",
"x 	c #81889D",
"y 	c #8F95A8",
"z 	c #8B9099",
"A 	c #8A8D98",
"B 	c #7B7D89",
"C 	c #676978",
"D 	c #7B7C8D",
"E 	c #666573",
"F 	c #7A7A87",
"G 	c #838491",
"H 	c #656980",
"I 	c #353A54",
"J 	c #47455E",
"K 	c #282B4E",
"L 	c #393A57",
"M 	c #3F4057",
"N 	c #282844",
"O 	c #1F1F3B",
"P 	c #171733",
"Q 	c #7078A2",
"R 	c #6E7BA0",
"S 	c #717EA1",
"T 	c #70799E",
"U 	c #72799F",
"V 	c #7B809C",
"W 	c #A4A8B6",
"X 	c #989AA5",
"Y 	c #7F8387",
"Z 	c #84878E",
"` 	c #6B6D76",
" .	c #65666A",
"..	c #5C5C64",
"+.	c #5C5B72",
"@.	c #565D79",
"#.	c #4A4D6F",
"$.	c #423F52",
"%.	c #393E55",
"&.	c #535470",
"*.	c #5C5D73",
"=.	c #42425E",
"-.	c #242540",
";.	c #1D1D38",
">.	c #646699",
",.	c #757AA0",
"'.	c #868BB1",
").	c #6E7399",
"!.	c #7E81A1",
"~.	c #A7A9C2",
"{.	c #8787A7",
"].	c #9D9FB7",
"^.	c #858B8F",
"/.	c #4B5551",
"(.	c #82898A",
"_.	c #A6A9B0",
":.	c #B2B7BF",
"<.	c #6B6B72",
"[.	c #444959",
"}.	c #353A5F",
"|.	c #383E62",
"1.	c #2E3349",
"2.	c #555459",
"3.	c #4E5056",
"4.	c #464859",
"5.	c #4F526A",
"6.	c #141538",
"7.	c #1C1D3B",
"8.	c #1B1831",
"9.	c #181532",
"0.	c #404680",
"a.	c #5C6196",
"b.	c #7075A8",
"c.	c #555A8B",
"d.	c #606490",
"e.	c #9095B3",
"f.	c #ACADCB",
"g.	c #6F6F96",
"h.	c #9193AD",
"i.	c #91969A",
"j.	c #90979A",
"k.	c #B2B5B9",
"l.	c #BDBDC3",
"m.	c #83878A",
"n.	c #6C726B",
"o.	c #2F3530",
"p.	c #3A4441",
"q.	c #484F59",
"r.	c #53576A",
"s.	c #585A5E",
"t.	c #505459",
"u.	c #434959",
"v.	c #262B43",
"w.	c #171B3D",
"x.	c #1C1E3E",
"y.	c #221F3B",
"z.	c #13102C",
"A.	c #1A1734",
"B.	c #60669F",
"C.	c #434980",
"D.	c #2D3371",
"E.	c #3E447B",
"F.	c #5B5E8E",
"G.	c #8C91AD",
"H.	c #77789C",
"I.	c #5C5B88",
"J.	c #737491",
"K.	c #909599",
"L.	c #9B9F9F",
"M.	c #ADAEAA",
"N.	c #9A9A92",
"O.	c #525749",
"P.	c #5C6856",
"Q.	c #3F423C",
"R.	c #3F4642",
"S.	c #535A54",
"T.	c #6B7073",
"U.	c #64686C",
"V.	c #41484B",
"W.	c #383F4F",
"X.	c #1B2142",
"Y.	c #161B46",
"Z.	c #11143D",
"`.	c #2C2948",
" +	c #100E28",
".+	c #141132",
"++	c #404987",
"@+	c #4A528C",
"#+	c #303578",
"$+	c #3C3F7F",
"%+	c #7477A1",
"&+	c #646295",
"*+	c #9FA1BB",
"=+	c #8B8CAB",
"-+	c #6A6D8E",
";+	c #9A9CB4",
">+	c #8B9193",
",+	c #80807B",
"'+	c #87857E",
")+	c #6C6A54",
"!+	c #5A5D49",
"~+	c #616A56",
"{+	c #575C4C",
"]+	c #7E837E",
"^+	c #636474",
"/+	c #A9ACB4",
"(+	c #747B7A",
"_+	c #3B4739",
":+	c #3A4745",
"<+	c #252F48",
"[+	c #161944",
"}+	c #181A3E",
"|+	c #2C2B4D",
"1+	c #11102F",
"2+	c #101127",
"3+	c #0E0E29",
"4+	c #373F86",
"5+	c #363C7F",
"6+	c #3B407E",
"7+	c #3E417C",
"8+	c #9498BB",
"9+	c #717099",
"0+	c #9D9DBF",
"a+	c #A1A2B9",
"b+	c #AFADC2",
"c+	c #C0C7D1",
"d+	c #C0C3BC",
"e+	c #9E9E93",
"f+	c #727060",
"g+	c #64604D",
"h+	c #58553C",
"i+	c #515940",
"j+	c #424A33",
"k+	c #515C47",
"l+	c #8E9596",
"m+	c #656B73",
"n+	c #545A61",
"o+	c #4B554E",
"p+	c #2E3841",
"q+	c #0F1144",
"r+	c #262754",
"s+	c #2F2F4F",
"t+	c #343354",
"u+	c #111033",
"v+	c #10112B",
"w+	c #0F0F27",
"x+	c #3C4689",
"y+	c #505594",
"z+	c #495088",
"A+	c #585C90",
"B+	c #A4A8C5",
"C+	c #B1B3C9",
"D+	c #6B6A91",
"E+	c #9394B2",
"F+	c #9699B5",
"G+	c #636B71",
"H+	c #807667",
"I+	c #6E654F",
"J+	c #655A3E",
"K+	c #7F735D",
"L+	c #686045",
"M+	c #4D5435",
"N+	c #414B2D",
"O+	c #384626",
"P+	c #505D45",
"Q+	c #667163",
"R+	c #7E8487",
"S+	c #A3ACAC",
"T+	c #676E81",
"U+	c #414464",
"V+	c #2E2E4F",
"W+	c #393859",
"X+	c #424162",
"Y+	c #110F35",
"Z+	c #12122F",
"`+	c #0F0F26",
" @	c #5E67A1",
".@	c #5A6098",
"+@	c #494E85",
"@@	c #8285AB",
"#@	c #B5B4CC",
"$@	c #A7A8C5",
"%@	c #9D9EBC",
"&@	c #9798B6",
"*@	c #6B6E96",
"=@	c #383C46",
"-@	c #6E6147",
";@	c #7E6E56",
">@	c #7F684E",
",@	c #665E46",
"'@	c #635F46",
")@	c #5B5834",
"!@	c #424823",
"~@	c #485230",
"{@	c #505840",
"]@	c #797F72",
"^@	c #BBC0BD",
"/@	c #BDC1C3",
"(@	c #B3B5C3",
"_@	c #7A7C8E",
":@	c #6F6E8F",
"<@	c #62627A",
"[@	c #2B294E",
"}@	c #13103C",
"|@	c #131332",
"1@	c #0F0F28",
"2@	c #16132E",
"3@	c #374087",
"4@	c #535B99",
"5@	c #4D5190",
"6@	c #5E6497",
"7@	c #7B7EA5",
"8@	c #ACABC7",
"9@	c #9B9BBB",
"0@	c #A1A2BF",
"a@	c #9B9DB7",
"b@	c #50557B",
"c@	c #616374",
"d@	c #7F6E58",
"e@	c #92785E",
"f@	c #8E725A",
"g@	c #7E6B50",
"h@	c #6C6448",
"i@	c #675E37",
"j@	c #5F5F37",
"k@	c #555E40",
"l@	c #8F9782",
"m@	c #A5AA9E",
"n@	c #B4B9B3",
"o@	c #95989B",
"p@	c #646677",
"q@	c #56566F",
"r@	c #4F4E70",
"s@	c #272648",
"t@	c #1A183F",
"u@	c #13103A",
"v@	c #18163C",
"w@	c #10102C",
"x@	c #171433",
"y@	c #3C448C",
"z@	c #3F4688",
"A@	c #42468B",
"B@	c #6F75A6",
"C@	c #9A9CC3",
"D@	c #A2A1C1",
"E@	c #7E7EA2",
"F@	c #9A9BB7",
"G@	c #9596AD",
"H@	c #83809B",
"I@	c #ABAEC3",
"J@	c #9C958B",
"K@	c #B1A18B",
"L@	c #ACA08C",
"M@	c #95876C",
"N@	c #806A4F",
"O@	c #7B6E50",
"P@	c #8B8D72",
"Q@	c #6C7458",
"R@	c #969E8A",
"S@	c #8B9284",
"T@	c #5B6350",
"U@	c #30343B",
"V@	c #626082",
"W@	c #5F5D7D",
"X@	c #353357",
"Y@	c #12103B",
"Z@	c #16143E",
"`@	c #16143C",
" #	c #191740",
".#	c #161634",
"+#	c #130F30",
"@#	c #3B438F",
"##	c #353B87",
"$#	c #434889",
"%#	c #53588F",
"&#	c #72769D",
"*#	c #ADB1CC",
"=#	c #9F9DBF",
"-#	c #A1A1B9",
";#	c #9C9CB6",
">#	c #9FA0B7",
",#	c #A8A7B7",
"'#	c #BBB9C4",
")#	c #D8D5D4",
"!#	c #C8C8B8",
"~#	c #AE9883",
"{#	c #A58A6E",
"]#	c #807451",
"^#	c #625F3E",
"/#	c #6A7459",
"(#	c #73867B",
"_#	c #445057",
":#	c #323937",
"<#	c #222838",
"[#	c #16123C",
"}#	c #211E46",
"|#	c #15123E",
"1#	c #110F3E",
"2#	c #131141",
"3#	c #17163F",
"4#	c #1C1D41",
"5#	c #171936",
"6#	c #111030",
"7#	c #515A9D",
"8#	c #3A4089",
"9#	c #3F4486",
"0#	c #464D88",
"a#	c #444981",
"b#	c #787CA3",
"c#	c #B2B2CA",
"d#	c #BFC0D4",
"e#	c #A7A7C1",
"f#	c #A4A6BB",
"g#	c #A8A6BB",
"h#	c #8D899D",
"i#	c #B2AEB3",
"j#	c #83847B",
"k#	c #656142",
"l#	c #988763",
"m#	c #83754D",
"n#	c #615F4B",
"o#	c #252746",
"p#	c #0C1236",
"q#	c #080836",
"r#	c #0E0A36",
"s#	c #2F3645",
"t#	c #1A2349",
"u#	c #0E103D",
"v#	c #151442",
"w#	c #1B1846",
"x#	c #161442",
"y#	c #1D1C47",
"z#	c #20204A",
"A#	c #161838",
"B#	c #141331",
"C#	c #535D9C",
"D#	c #3E448D",
"E#	c #3B4083",
"F#	c #3A4281",
"G#	c #34397F",
"H#	c #535989",
"I#	c #B7B7D2",
"J#	c #A8A8C3",
"K#	c #616085",
"L#	c #85859D",
"M#	c #B7B6C5",
"N#	c #A6A3AC",
"O#	c #868089",
"P#	c #797A77",
"Q#	c #505B39",
"R#	c #908565",
"S#	c #978666",
"T#	c #585550",
"U#	c #15143C",
"V#	c #101138",
"W#	c #110D33",
"X#	c #0C0733",
"Y#	c #1F2345",
"Z#	c #263857",
"`#	c #19204B",
" $	c #21224D",
".$	c #25214A",
"+$	c #505073",
"@$	c #454468",
"#$	c #24234C",
"$$	c #191A3E",
"%$	c #1C1B3A",
"&$	c #747AB5",
"*$	c #6264A3",
"=$	c #444C8E",
"-$	c #2E3277",
";$	c #50578A",
">$	c #6E6E93",
",$	c #51507D",
"'$	c #2C2B5D",
")$	c #575478",
"!$	c #888498",
"~$	c #B0AABB",
"{$	c #8F868F",
"]$	c #838185",
"^$	c #66686F",
"/$	c #6C6B52",
"($	c #90886D",
"_$	c #3F403E",
":$	c #333357",
"<$	c #15143F",
"[$	c #363750",
"}$	c #15183C",
"|$	c #1A2043",
"1$	c #222343",
"2$	c #2F3146",
"3$	c #2E2F4B",
"4$	c #2F3052",
"5$	c #61617F",
"6$	c #585876",
"7$	c #36355B",
"8$	c #15163C",
"9$	c #1B1A3A",
"0$	c #A4ACDB",
"a$	c #C0C4E2",
"b$	c #898BC3",
"c$	c #404589",
"d$	c #3E4481",
"e$	c #31357C",
"f$	c #2E2E6A",
"g$	c #2E2E69",
"h$	c #27275F",
"i$	c #3A3863",
"j$	c #666385",
"k$	c #6E6A80",
"l$	c #847E8A",
"m$	c #7A7583",
"n$	c #5A586F",
"o$	c #445241",
"p$	c #4E592B",
"q$	c #5B6449",
"r$	c #383B4E",
"s$	c #3D3F56",
"t$	c #ABB2A7",
"u$	c #82839B",
"v$	c #333660",
"w$	c #18134C",
"x$	c #252451",
"y$	c #272652",
"z$	c #2B2954",
"A$	c #4C4A72",
"B$	c #474970",
"C$	c #1F214E",
"D$	c #191A40",
"E$	c #11112F",
"F$	c #9A9BCD",
"G$	c #9E9FC7",
"H$	c #7D85B2",
"I$	c #35397F",
"J$	c #3E4383",
"K$	c #2E2F71",
"L$	c #2C2E67",
"M$	c #36396B",
"N$	c #555582",
"O$	c #3C3A65",
"P$	c #62607C",
"Q$	c #605C74",
"R$	c #7B768C",
"S$	c #544E6A",
"T$	c #2E2E52",
"U$	c #252C3E",
"V$	c #505B50",
"W$	c #79807B",
"X$	c #838B82",
"Y$	c #ABB3AB",
"Z$	c #999D9E",
"`$	c #8185A0",
" %	c #332E5D",
".%	c #32315F",
"+%	c #333354",
"@%	c #51526B",
"#%	c #515265",
"$%	c #3A4254",
"%%	c #2F3954",
"&%	c #1D2042",
"*%	c #4C569F",
"=%	c #6069A2",
"-%	c #3C4584",
";%	c #515697",
">%	c #424486",
",%	c #5D6399",
"'%	c #535684",
")%	c #5B5C8C",
"!%	c #4B4A76",
"~%	c #666590",
"{%	c #3E3D66",
"]%	c #565276",
"^%	c #3C3760",
"/%	c #434064",
"(%	c #363560",
"_%	c #141249",
":%	c #2E2D58",
"<%	c #2E3157",
"[%	c #1C214A",
"}%	c #222C40",
"|%	c #687371",
"1%	c #5E6478",
"2%	c #3E3E66",
"3%	c #494B66",
"4%	c #6F7479",
"5%	c #6F7379",
"6%	c #464C57",
"7%	c #373F4E",
"8%	c #1F2839",
"9%	c #434A99",
"0%	c #4B529D",
"a%	c #404896",
"b%	c #3C428C",
"c%	c #3B3F86",
"d%	c #585D97",
"e%	c #767AA5",
"f%	c #6D6E97",
"g%	c #3A3770",
"h%	c #48457C",
"i%	c #52517B",
"j%	c #3B386B",
"k%	c #221F56",
"l%	c #3A3868",
"m%	c #353361",
"n%	c #232150",
"o%	c #1E1B51",
"p%	c #1A1956",
"q%	c #23255F",
"r%	c #4D5285",
"s%	c #3F436C",
"t%	c #7F8597",
"u%	c #575877",
"v%	c #72767E",
"w%	c #6D7274",
"x%	c #808391",
"y%	c #646675",
"z%	c #4E5363",
"A%	c #282F41",
"B%	c #1D2335",
"C%	c #414996",
"D%	c #49559A",
"E%	c #39418A",
"F%	c #393F8B",
"G%	c #42468A",
"H%	c #62669B",
"I%	c #666897",
"J%	c #9798BE",
"K%	c #555483",
"L%	c #9293B4",
"M%	c #6A6D90",
"N%	c #4D4D7B",
"O%	c #303062",
"P%	c #2A2957",
"Q%	c #7D7D99",
"R%	c #4E4E73",
"S%	c #121347",
"T%	c #333667",
"U%	c #282C5E",
"V%	c #363965",
"W%	c #444673",
"X%	c #6A6B8C",
"Y%	c #707380",
"Z%	c #7B8087",
"`%	c #878A9C",
" &	c #7C7D93",
".&	c #5A5F72",
"+&	c #21273B",
"@&	c #545CA2",
"#&	c #3C4390",
"$&	c #3A428D",
"%&	c #3C448E",
"&&	c #454E94",
"*&	c #3B4283",
"=&	c #4A4F8B",
"-&	c #494986",
";&	c #58598F",
">&	c #444678",
",&	c #2F3160",
"'&	c #3F406F",
")&	c #50517E",
"!&	c #7F7EA4",
"~&	c #8A89A8",
"{&	c #8382A4",
"]&	c #7F82A5",
"^&	c #6E7195",
"/&	c #8083A8",
"(&	c #797C9E",
"_&	c #6C6D9C",
":&	c #70748D",
"<&	c #9699A5",
"[&	c #959AA9",
"}&	c #9198A9",
"|&	c #696F83",
"1&	c #293044",
"2&	c #1F263C",
"3&	c #454D97",
"4&	c #3B4293",
"5&	c #353D8A",
"6&	c #4A529B",
"7&	c #484E92",
"8&	c #555999",
"9&	c #464989",
"0&	c #343972",
"a&	c #53588C",
"b&	c #767AAB",
"c&	c #4A4D82",
"d&	c #4C4E85",
"e&	c #71729C",
"f&	c #62638A",
"g&	c #60608E",
"h&	c #47477A",
"i&	c #424371",
"j&	c #5D5F8B",
"k&	c #555984",
"l&	c #696D9A",
"m&	c #9199AA",
"n&	c #787D8C",
"o&	c #5E6677",
"p&	c #414B5D",
"q&	c #2B3749",
"r&	c #272F44",
"s&	c #585FAB",
"t&	c #39408F",
"u&	c #3D4590",
"v&	c #3F468D",
"w&	c #383E80",
"x&	c #353A7F",
"y&	c #373C7C",
"z&	c #424883",
"A&	c #3C417A",
"B&	c #4D5289",
"C&	c #494E82",
"D&	c #5B5B92",
"E&	c #7A7CA8",
"F&	c #7778A5",
"G&	c #5E5F8C",
"H&	c #8789AF",
"I&	c #9799B9",
"J&	c #9798B8",
"K&	c #9193B8",
"L&	c #8F95A9",
"M&	c #707686",
"N&	c #31394B",
"O&	c #2F394C",
"P&	c #2D3348",
"Q&	c #464F9A",
"R&	c #484F9E",
"S&	c #404893",
"T&	c #3B438B",
"U&	c #373D86",
"V&	c #3A4186",
"W&	c #262D70",
"X&	c #474D89",
"Y&	c #404381",
"Z&	c #4A4A89",
"`&	c #656397",
" *	c #7E7EA9",
".*	c #7171A0",
"+*	c #7C7BA9",
"@*	c #8A8AB2",
"#*	c #9597B8",
"$*	c #A0A2BF",
"%*	c #9097B8",
"&*	c #6D7798",
"**	c #5C5E75",
"=*	c #51556C",
"-*	c #3A3E57",
";*	c #4F569E",
">*	c #4B5198",
",*	c #494F97",
"'*	c #52599F",
")*	c #535B9D",
"!*	c #4D5594",
"~*	c #5A609B",
"{*	c #5B5F96",
"]*	c #616297",
"^*	c #8183AF",
"/*	c #8D90B8",
"(*	c #7375A3",
"_*	c #71749C",
":*	c #8083AA",
"<*	c #989BBF",
"[*	c #969BB7",
"}*	c #8C92B3",
"|*	c #8289AE",
"1*	c #696D91",
"2*	c #5E5F7D",
"3*	c #A3AADC",
"4*	c #7279B0",
"5*	c #4A519A",
"6*	c #40468F",
"7*	c #4F5597",
"8*	c #6368A4",
"9*	c #6569A1",
"0*	c #8B8EC1",
"a*	c #9095BF",
"b*	c #8288B2",
"c*	c #797DAF",
"d*	c #6E72A4",
"e*	c #636799",
"f*	c #767AA9",
"g*	c #848BAE",
"h*	c #7B7FAB",
"i*	c #6E719F",
"j*	c #5A6186",
"k*	c #5B63A7",
"l*	c #4C54A2",
"m*	c #5863A8",
"n*	c #6B73AE",
"o*	c #5C649F",
"p*	c #58609B",
"q*	c #545B9A",
"r*	c #535A99",
"s*	c #545B99",
"t*	c #5C6698",
"u*	c #747BA9",
"v*	c #7E84AE",
"w*	c #7D84AF",
"x*	c #5C5F90",
"y*	c #535C9F",
"z*	c #717ABA",
"A*	c #5E66A6",
"B*	c #5A62A5",
"C*	c #4E5698",
"D*	c #4B5396",
"E*	c #3F4789",
"F*	c #586099",
"                        . + @ # $ % & *                         ",
"                  = - ; > , ' ) ! ~ { ] ^ / (                   ",
"              _ : < [ } | | 1 2 3 4 5 6 7 8 9 0 a               ",
"            b c d e f 1 g h i j k l m n o p q r s t             ",
"          u v w x y z A B C D E F G H I J K L M N O P           ",
"        Q R S T U V W X Y Z `  ...+.@.#.$.%.&.*.=.s -.;.        ",
"      >.,.'.).!.~.{.].^./.(._.:.<.[.}.|.1.2.3.4.5.6.7.8.9.      ",
"    0.a.b.c.d.e.f.g.h.i.j.k.l.m.n.o.p.q.r.s.t.u.v.w.x.y.z.A.    ",
"    B.C.D.E.F.G.H.I.J.K.L.M.N.O.P.Q.R.S.T.U.V.W.X.Y.Z.`. +.+    ",
"  ++@+#+$+%+&+*+=+-+;+>+,+'+)+!+~+{+]+^+/+(+_+:+<+[+}+|+1+2+3+  ",
"  4+5+6+7+8+9+0+a+b+c+d+e+f+g+h+i+j+k+l+m+n+o+p+q+r+s+t+u+v+w+  ",
"  x+y+z+A+B+C+D+E+F+G+H+I+J+K+L+M+N+O+P+Q+R+S+T+U+V+W+X+Y+Z+`+  ",
"4+ @.@+@@@#@$@%@&@*@=@-@;@>@,@'@)@!@~@{@]@^@/@(@_@:@<@[@}@|@1@2@",
"3@4@5@6@7@8@9@0@a@b@c@d@e@f@g@h@i@j@k@l@m@n@o@p@q@r@s@t@u@v@w@x@",
"y@z@A@B@C@D@E@F@G@H@I@J@K@L@M@N@O@P@Q@R@S@T@U@V@W@X@Y@Z@`@ #.#+#",
"@###$#%#&#*#=#-#;#>#,#'#)#!#~#{#]#^#/#(#_#:#<#[#}#|#1#2#3#4#5#6#",
"7#8#9#0#a#b#c#d#e#f#g#h#i#j#k#l#m#n#o#p#q#r#s#t#u#v#w#x#y#z#A#B#",
"C#D#E#F#G#H#I#J#K#L#M#N#O#P#Q#R#S#T#U#V#W#X#Y#Z#`# $.$+$@$#$$$%$",
"&$*$=$E#-$;$>$,$'$)$!$~${$]$^$/$($_$:$<$[$}$|$1$2$3$4$5$6$7$8$9$",
"0$a$b$c$d$e$f$g$h$i$j$k$l$m$n$o$p$q$r$s$t$u$v$w$x$y$z$A$B$C$D$E$",
"  F$G$H$I$J$K$L$M$N$O$P$Q$R$S$T$U$V$W$X$Y$Z$`$ %.%+%@%#%$%%%&%  ",
"  *%=%-%;%>%,%'%)%!%~%{%]%^%/%(%_%:%<%[%}%|%1%2%3%4%5%U.6%7%8%  ",
"  9%0%a%b%c%d%e%f%g%h%i%j%k%l%m%n%o%p%q%r%s%t%u%v%w%x%y%z%A%B%  ",
"    C%D%E%F%G%H%I%J%K%L%M%N%O%P%Q%R%S%T%U%V%W%X%Y%Z%`% &.&+&    ",
"    @&#&$&%&&&*&=&-&;&>&,&'&)&!&~&{&]&^&/&(&_&:&<&[&}&|&1&2&    ",
"      3&4&5&6&7&8&9&0&a&b&c&d&e&f&g&h&i&j&k&l&m&n&o&p&q&r&      ",
"        s&t&u&v&w&x&y&z&A&B&C&D&E&F&G&H&I&J&K&L&M&N&O&P&        ",
"          Q&R&S&T&U&V&W&X&Y&Z&`& *.*+*@*#*$*%*&***=*-*          ",
"            ;*>*,*'*)*!*~*{*]*^*/*(*_*:*<*[*}*|*1*2*            ",
"              3*4*5*6*7*8*9*0*a*b*c*d*e*f*g*h*i*j*              ",
"                  k*l*m*n*o*p*q*r*s*t*u*v*w*x*                  ",
"                        y*z*A*B*C*D*E*F*                        "};
